<?xml version="1.0" encoding="UTF-8" standalone="no"?>
<!-- Created with Inkscape (http://www.inkscape.org/) -->

<svg
   xmlns:dc="http://purl.org/dc/elements/1.1/"
   xmlns:cc="http://creativecommons.org/ns#"
   xmlns:rdf="http://www.w3.org/1999/02/22-rdf-syntax-ns#"
   xmlns:svg="http://www.w3.org/2000/svg"
   xmlns="http://www.w3.org/2000/svg"
   xmlns:sodipodi="http://sodipodi.sourceforge.net/DTD/sodipodi-0.dtd"
   xmlns:inkscape="http://www.inkscape.org/namespaces/inkscape"
   viewBox="0 0 64 64"
   inkscape:version="0.91 r13725"
   version="1.1"
   id="svg4152"
   height="64"
   width="64"
   sodipodi:docname="iconApp.svg">
  <sodipodi:namedview
     inkscape:window-maximized="1"
     inkscape:window-y="24"
     inkscape:window-x="65"
     inkscape:window-height="744"
     inkscape:window-width="1301"
     inkscape:grid-bbox="true"
     inkscape:document-units="px"
     showgrid="true"
     inkscape:current-layer="layer1"
     inkscape:cy="25.455954"
     inkscape:cx="10.058733"
     inkscape:zoom="8"
     inkscape:pageshadow="2"
     inkscape:pageopacity="0.0"
     borderopacity="1.0"
     bordercolor="#666666"
     pagecolor="#ffffff"
     id="base" />
  <defs
     id="defs4154">
    <inkscape:path-effect
       bendpath1-nodetypes="cc"
       bendpath4="m 46.386757,35.338763 0,6.8"
       bendpath3="m 46.386757,42.138763 5.0625,0"
       bendpath2="m 51.449257,35.338763 0,6.8"
       bendpath1="m 46.386757,35.338763 11.9375,-0.625"
       xx="true"
       yy="true"
       is_visible="true"
       id="path-effect5022"
       effect="envelope" />
    <inkscape:path-effect
       bendpath4="m 11.401797,32.301263 0,12.05"
       bendpath3="m 11.401797,44.351263 129.992183,0"
       bendpath2="m 141.39398,32.301263 0,12.05"
       bendpath1="m 11.401797,32.301263 129.992183,0"
       xx="true"
       yy="true"
       is_visible="true"
       id="path-effect5020"
       effect="envelope" />
    <inkscape:path-effect
       fuse_tolerance="0"
       vertical_pattern="false"
       prop_units="false"
       tang_offset="0"
       normal_offset="0"
       spacing="0"
       scale_y_rel="false"
       prop_scale="1"
       copytype="single_stretched"
       pattern="M 0,0 1,0"
       is_visible="true"
       id="path-effect5018"
       effect="skeletal" />
    <inkscape:path-effect
       fuse_tolerance="0"
       vertical_pattern="false"
       prop_units="false"
       tang_offset="0"
       normal_offset="0"
       spacing="0"
       scale_y_rel="false"
       prop_scale="1"
       copytype="single_stretched"
       pattern="M 0,0 1,0"
       is_visible="true"
       id="path-effect4994"
       effect="skeletal" />
    <inkscape:perspective
       id="perspective4716"
       inkscape:persp3d-origin="13.477168 : 27.331827 : 1"
       inkscape:vp_z="66.856278 : 70.853992 : 1"
       inkscape:vp_y="-726.10041 : 2005.8304 : 0"
       inkscape:vp_x="-55.392082 : 26.600706 : 1"
       sodipodi:type="inkscape:persp3d" />
    <inkscape:perspective
       id="perspective4716-3"
       inkscape:persp3d-origin="36.178075 : 55.93616 : 1"
       inkscape:vp_z="86.132466 : 72.678566 : 1"
       inkscape:vp_y="0 : 1569.6006 : 0"
       inkscape:vp_x="-13.776315 : 72.678566 : 1"
       sodipodi:type="inkscape:persp3d" />
    <inkscape:perspective
       id="perspective4716-9"
       inkscape:persp3d-origin="21.223396 : 37.05038 : 1"
       inkscape:vp_z="49.588925 : 68.766317 : 1"
       inkscape:vp_y="-636.91886 : 1153.7766 : 0"
       inkscape:vp_x="-20.72973 : 29.948336 : 1"
       sodipodi:type="inkscape:persp3d" />
    <inkscape:perspective
       id="perspective4716-9-0"
       inkscape:persp3d-origin="26.027685 : 45.578657 : 1"
       inkscape:vp_z="41.3328 : 77.786036 : 1"
       inkscape:vp_y="-158.18252 : 1118.2097 : 0"
       inkscape:vp_x="7.3480104 : 37.226407 : 1"
       sodipodi:type="inkscape:persp3d" />
  </defs>
  <metadata
     id="metadata4157">
    <rdf:RDF>
      <cc:Work
         rdf:about="">
        <dc:format>image/svg+xml</dc:format>
        <dc:type
           rdf:resource="http://purl.org/dc/dcmitype/StillImage" />
        <dc:title />
      </cc:Work>
    </rdf:RDF>
  </metadata>
  <g
     inkscape:label="Layer 3"
     id="layer3"
     inkscape:groupmode="layer">
    <path
       d="M 23.812598,25.896891 37.141074,25.18718 38.290558,14.49968 26.839002,19.042144 Z"
       style="fill:#afafde;fill-opacity:1;fill-rule:evenodd;stroke:none;stroke-width:1px;stroke-linecap:butt;stroke-linejoin:round;stroke-opacity:1"
       id="path4844"
       inkscape:connector-curvature="0" />
    <path
       d="m 23.336537,22.531562 0.476061,3.365329 3.026404,-6.854747 -0.393828,-2.78401 z"
       style="fill:#353564;fill-opacity:1;fill-rule:evenodd;stroke:none;stroke-width:1px;stroke-linecap:butt;stroke-linejoin:round;stroke-opacity:1"
       id="path4846"
       inkscape:connector-curvature="0" />
    <path
       d="m 26.445174,16.258134 11.22017,-6.178155 0.625214,4.419701 -11.451556,4.542464 z"
       style="fill:#e9e9ff;fill-opacity:1;fill-rule:evenodd;stroke:none;stroke-width:1px;stroke-linecap:butt;stroke-linejoin:round;stroke-opacity:1"
       id="path4848"
       inkscape:connector-curvature="0" />
    <path
       d="m 23.336537,22.531562 12.943093,-3.434026 1.385714,-9.017557 -11.22017,6.178155 z"
       style="fill:#444444;fill-opacity:1;fill-rule:evenodd;stroke:none;stroke-width:1px;stroke-linecap:butt;stroke-linejoin:round;stroke-opacity:1"
       id="path4850"
       inkscape:connector-curvature="0" />
    <path
       d="m 36.27963,19.097536 0.861444,6.089644 1.149484,-10.6875 -0.625214,-4.419701 z"
       style="fill:#bebebe;fill-opacity:1;fill-rule:evenodd;stroke:none;stroke-width:1px;stroke-linecap:butt;stroke-linejoin:round;stroke-opacity:1"
       id="path4852"
       inkscape:connector-curvature="0" />
    <path
       d="M 23.336537,22.531562 36.27963,19.097536 37.141074,25.18718 23.812598,25.896891 Z"
       style="fill:#727272;fill-opacity:1;fill-rule:evenodd;stroke:none;stroke-width:1px;stroke-linecap:butt;stroke-linejoin:round;stroke-opacity:1"
       id="path4854"
       inkscape:connector-curvature="0" />
  </g>
  <g
     inkscape:label="Layer 2"
     id="layer2"
     inkscape:groupmode="layer">
    <path
       d="M 17.784768,34.41317 48.963172,34.705817 49.13477,23.8815 23.278553,27.645385 Z"
       style="fill:#afafde;fill-opacity:1;fill-rule:evenodd;stroke:none;stroke-width:1px;stroke-linecap:butt;stroke-linejoin:round;stroke-opacity:1"
       id="path4864"
       inkscape:connector-curvature="0" />
    <path
       d="m 15.867916,30.940799 1.916852,3.472371 5.493785,-6.767785 -1.585739,-2.87256 z"
       style="fill:#353564;fill-opacity:1;fill-rule:evenodd;stroke:none;stroke-width:1px;stroke-linecap:butt;stroke-linejoin:round;stroke-opacity:1"
       id="path4866"
       inkscape:connector-curvature="0" />
    <path
       d="M 21.692814,24.772825 46.617362,19.321222 49.13477,23.8815 23.278553,27.645385 Z"
       style="fill:#e9e9ff;fill-opacity:1;fill-rule:evenodd;stroke:none;stroke-width:1px;stroke-linecap:butt;stroke-linejoin:round;stroke-opacity:1"
       id="path4868"
       inkscape:connector-curvature="0" />
    <path
       d="M 15.867916,30.940799 45.494584,28.42248 46.617362,19.321222 21.692814,24.772825 Z"
       style="fill:#444444;fill-opacity:1;fill-rule:evenodd;stroke:none;stroke-width:1px;stroke-linecap:butt;stroke-linejoin:round;stroke-opacity:1"
       id="path4870"
       inkscape:connector-curvature="0" />
    <path
       d="M 45.494584,28.42248 48.963172,34.705817 49.13477,23.8815 46.617362,19.321222 Z"
       style="fill:#bebebe;fill-opacity:1;fill-rule:evenodd;stroke:none;stroke-width:1px;stroke-linecap:butt;stroke-linejoin:round;stroke-opacity:1"
       id="path4872"
       inkscape:connector-curvature="0" />
    <path
       d="M 15.867916,30.940799 45.494584,28.42248 48.963172,34.705817 17.784768,34.41317 Z"
       style="fill:#727272;fill-opacity:1;fill-rule:evenodd;stroke:none;stroke-width:1px;stroke-linecap:butt;stroke-linejoin:round;stroke-opacity:1"
       id="path4874"
       inkscape:connector-curvature="0" />
  </g>
  <g
     inkscape:groupmode="layer"
     inkscape:label="Layer 1"
     id="layer1">
    <path
       d="M 6.0899414,47.729534 55.861106,56.09211 58.876277,38.830602 16.586594,38.300888 Z"
       style="fill:#afafde;fill-opacity:1;fill-rule:evenodd;stroke:none;stroke-width:1px;stroke-linecap:butt;stroke-linejoin:round;stroke-opacity:1"
       id="path4884"
       inkscape:connector-curvature="0" />
    <path
       d="M 3.9046919,41.692849 6.0899414,47.729534 16.586594,38.300888 14.77882,33.306967 Z"
       style="fill:#353564;fill-opacity:1;fill-rule:evenodd;stroke:none;stroke-width:1px;stroke-linecap:butt;stroke-linejoin:round;stroke-opacity:1"
       id="path4886"
       inkscape:connector-curvature="0" />
    <path
       d="m 14.77882,33.306967 41.22756,-2.404368 2.869897,7.928003 -42.289683,-0.529714 z"
       style="fill:#e9e9ff;fill-opacity:1;fill-rule:evenodd;stroke:none;stroke-width:1px;stroke-linecap:butt;stroke-linejoin:round;stroke-opacity:1"
       id="path4888"
       inkscape:connector-curvature="0" />
    <path
       d="M 3.9046919,41.692849 51.906845,45.168584 56.00638,30.902599 14.77882,33.306967 Z"
       style="fill:#444444;fill-opacity:1;fill-rule:evenodd;stroke:none;stroke-width:1px;stroke-linecap:butt;stroke-linejoin:round;stroke-opacity:1"
       id="path4890"
       inkscape:connector-curvature="0" />
    <path
       d="M 51.906845,45.168584 55.861106,56.09211 58.876277,38.830602 56.00638,30.902599 Z"
       style="fill:#bebebe;fill-opacity:1;fill-rule:evenodd;stroke:none;stroke-width:1px;stroke-linecap:butt;stroke-linejoin:round;stroke-opacity:1"
       id="path4892"
       inkscape:connector-curvature="0" />
    <path
       d="M 3.9046919,41.692849 51.906845,45.168584 55.861106,56.09211 6.0899414,47.729534 Z"
       style="fill:#727272;fill-opacity:1;fill-rule:evenodd;stroke:none;stroke-width:1px;stroke-linecap:butt;stroke-linejoin:round;stroke-opacity:1"
       id="path4894"
       inkscape:connector-curvature="0" />
    <g
       transform="matrix(1.4696789,-0.64292571,-0.3799224,0.8466216,0,0)"
       style="font-style:normal;font-weight:normal;font-size:22.65606308px;line-height:125%;font-family:sans-serif;letter-spacing:0px;word-spacing:0px;fill:#ffffff;fill-opacity:1;stroke:none;stroke-width:1px;stroke-linecap:butt;stroke-linejoin:miter;stroke-opacity:1"
       id="text4902">
      <path
         d="m 31.026812,43.636944 q -0.06797,-0.167089 -0.155761,-0.359665 -0.08496,-0.195409 -0.181248,-0.390817 -0.09346,-0.198241 -0.192577,-0.390817 -0.09912,-0.195409 -0.195408,-0.362497 l 0,1.503796 -0.237889,0 0,-1.962582 0.212401,0 q 0.107616,0.175585 0.206736,0.359665 0.101952,0.184081 0.192577,0.365329 0.09062,0.178417 0.16992,0.354001 0.08213,0.172753 0.150097,0.328513 l 0,-1.407508 0.237888,0 0,1.962582 -0.206736,0 z"
         style="font-style:normal;font-variant:normal;font-weight:normal;font-stretch:normal;font-size:2.83200788px;font-family:'Ubuntu Condensed';-inkscape-font-specification:'Ubuntu Condensed, ';fill:#ffffff"
         id="path4206" />
      <path
         d="m 32.610125,43.594464 q -0.03682,0.01416 -0.09062,0.02832 -0.05098,0.01133 -0.110448,0.01982 -0.05664,0.01133 -0.116113,0.01699 -0.05664,0.0085 -0.104784,0.0085 -0.116112,0 -0.212401,-0.02832 -0.09629,-0.02549 -0.164256,-0.09346 -0.06797,-0.06797 -0.104784,-0.184081 -0.03682,-0.118944 -0.03682,-0.297361 l 0,-0.914738 0.243552,0 0,0.906242 q 0,0.218065 0.06514,0.308689 0.06797,0.08779 0.203905,0.08779 0.04531,0 0.09062,-0.0028 0.04531,-0.0057 0.09346,-0.01982 l 0,-1.280067 0.243552,0 0,1.444324 z"
         style="font-style:normal;font-variant:normal;font-weight:normal;font-stretch:normal;font-size:2.83200788px;font-family:'Ubuntu Condensed';-inkscape-font-specification:'Ubuntu Condensed, ';fill:#ffffff"
         id="path4208" />
      <path
         d="m 33.050414,42.19262 q 0.09912,-0.03115 0.215233,-0.05098 0.116112,-0.02266 0.2124,-0.02266 0.09912,0 0.178417,0.02549 0.08213,0.02549 0.144432,0.08496 0.07363,-0.04814 0.158593,-0.0793 0.08496,-0.03115 0.186912,-0.03115 0.101952,0 0.184081,0.03115 0.08496,0.02832 0.144432,0.09912 0.05947,0.0708 0.09346,0.192576 0.03398,0.118945 0.03398,0.297361 l 0,0.897747 -0.243552,0 0,-0.877923 q 0,-0.220896 -0.05098,-0.322849 -0.05098,-0.101952 -0.192576,-0.101952 -0.05381,0 -0.110448,0.01982 -0.05381,0.01982 -0.101953,0.05381 0.02266,0.06514 0.03398,0.147265 0.01133,0.08213 0.01133,0.18408 l 0,0.897747 -0.243552,0 0,-0.877923 q 0,-0.220896 -0.05098,-0.322849 -0.05098,-0.101952 -0.192577,-0.101952 -0.07363,0 -0.167088,0.02832 l 0,1.274404 -0.243553,0 0,-1.444324 z"
         style="font-style:normal;font-variant:normal;font-weight:normal;font-stretch:normal;font-size:2.83200788px;font-family:'Ubuntu Condensed';-inkscape-font-specification:'Ubuntu Condensed, ';fill:#ffffff"
         id="path4210" />
      <path
         d="m 30.939019,46.958889 0,0.218065 -0.87509,0 0,-1.962582 0.254881,0 0,1.744517 0.620209,0 z"
         style="font-style:normal;font-variant:normal;font-weight:normal;font-stretch:normal;font-size:2.83200788px;font-family:'Ubuntu Condensed';-inkscape-font-specification:'Ubuntu Condensed, ';fill:#ffffff"
         id="path4212" />
      <path
         d="m 32.185014,46.434968 q 0,0.175584 -0.03115,0.320016 -0.03115,0.141601 -0.09629,0.243553 -0.0623,0.101952 -0.161424,0.158593 -0.09629,0.05664 -0.229393,0.05664 -0.133104,0 -0.232225,-0.05664 -0.09912,-0.05664 -0.164256,-0.158593 -0.0623,-0.101952 -0.09346,-0.243553 -0.03115,-0.144432 -0.03115,-0.320016 0,-0.172753 0.03115,-0.317185 0.03115,-0.144433 0.09346,-0.246385 0.06514,-0.104784 0.164256,-0.161424 0.09912,-0.05664 0.232225,-0.05664 0.133104,0 0.229393,0.05664 0.09912,0.05664 0.161424,0.161424 0.06514,0.101952 0.09629,0.246385 0.03115,0.144432 0.03115,0.317185 z m -0.25488,0 q 0,-0.124609 -0.01416,-0.226561 -0.01416,-0.104784 -0.04531,-0.178417 -0.03115,-0.07646 -0.08213,-0.116112 -0.05098,-0.04248 -0.121776,-0.04248 -0.07363,0 -0.124608,0.04248 -0.04814,0.03965 -0.08213,0.116112 -0.03115,0.07363 -0.04531,0.178417 -0.01416,0.101952 -0.01416,0.226561 0,0.124608 0.01416,0.229392 0.01416,0.101953 0.04531,0.175585 0.03398,0.07363 0.08213,0.116112 0.05098,0.03965 0.124608,0.03965 0.0708,0 0.121776,-0.03965 0.05098,-0.04248 0.08213,-0.116112 0.03115,-0.07363 0.04531,-0.175585 0.01416,-0.104784 0.01416,-0.229392 z"
         style="font-style:normal;font-variant:normal;font-weight:normal;font-stretch:normal;font-size:2.83200788px;font-family:'Ubuntu Condensed';-inkscape-font-specification:'Ubuntu Condensed, ';fill:#ffffff"
         id="path4214" />
      <path
         d="m 32.994659,47.21377 q -0.152929,0 -0.254881,-0.05947 -0.101952,-0.05947 -0.167088,-0.161425 -0.0623,-0.104784 -0.09063,-0.246385 -0.02549,-0.1416 -0.02549,-0.308688 0,-0.368161 0.133105,-0.574898 0.135936,-0.209569 0.407809,-0.209569 0.08213,0 0.147264,0.01982 0.06514,0.01982 0.121777,0.05098 l -0.0623,0.201072 q -0.08779,-0.05664 -0.195409,-0.05664 -0.152928,0 -0.226561,0.138768 -0.0708,0.138769 -0.0708,0.430466 0,0.121776 0.01416,0.22656 0.01416,0.101953 0.04814,0.175585 0.03682,0.07363 0.09346,0.116112 0.05947,0.04248 0.150096,0.04248 0.0623,0 0.110448,-0.01416 0.05098,-0.01699 0.09629,-0.04248 l 0.05381,0.189745 q -0.04531,0.03115 -0.121777,0.05664 -0.07363,0.02549 -0.161424,0.02549 z"
         style="font-style:normal;font-variant:normal;font-weight:normal;font-stretch:normal;font-size:2.83200788px;font-family:'Ubuntu Condensed';-inkscape-font-specification:'Ubuntu Condensed, ';fill:#ffffff"
         id="path4216" />
      <path
         d="m 34.463099,45.69015 q -0.118944,0.203904 -0.229392,0.373825 -0.107617,0.167088 -0.215233,0.314352 0.06797,0.0793 0.138768,0.178417 0.0708,0.09912 0.135937,0.206737 0.06514,0.104784 0.121776,0.2124 0.05664,0.104784 0.09629,0.201073 l -0.266208,0 q -0.04248,-0.09346 -0.09912,-0.195409 -0.05664,-0.101952 -0.118944,-0.19824 -0.0623,-0.09912 -0.124608,-0.186913 -0.0623,-0.08779 -0.116113,-0.147264 l 0,0.727826 -0.243552,0 0,-2.155158 0.243552,-0.04248 0,1.350867 q 0.05098,-0.06797 0.107617,-0.152928 0.05947,-0.08496 0.116112,-0.169921 0.05664,-0.08779 0.107616,-0.16992 0.05098,-0.08213 0.08496,-0.147264 l 0.260545,0 z"
         style="font-style:normal;font-variant:normal;font-weight:normal;font-stretch:normal;font-size:2.83200788px;font-family:'Ubuntu Condensed';-inkscape-font-specification:'Ubuntu Condensed, ';fill:#ffffff"
         id="path4218" />
    </g>
    <g
       transform="matrix(1.4061022,-0.17859432,-0.54868218,0.78087604,0,0)"
       style="font-style:normal;font-weight:normal;font-size:26.77737427px;line-height:125%;font-family:sans-serif;letter-spacing:0px;word-spacing:0px;fill:#ffffff;fill-opacity:1;stroke:none;stroke-width:1px;stroke-linecap:butt;stroke-linejoin:miter;stroke-opacity:1"
       id="text4902-2">
      <path
         d="m 33.692648,43.124903 q -0.408355,0 -0.625922,-0.304592 -0.217566,-0.304593 -0.217566,-0.940556 0,-0.324675 0.06025,-0.548936 0.0636,-0.22426 0.174053,-0.364842 0.110457,-0.140581 0.26108,-0.20083 0.150622,-0.0636 0.328022,-0.0636 0.147276,0 0.274469,0.04017 0.127192,0.03682 0.207524,0.09372 l -0.09037,0.251038 q -0.08033,-0.05355 -0.174053,-0.08703 -0.09037,-0.03347 -0.210872,-0.03347 -0.267774,0 -0.388272,0.224261 -0.120498,0.220913 -0.120498,0.689517 0,0.471951 0.127192,0.726337 0.127193,0.254385 0.41505,0.254385 0.137234,0 0.220913,-0.03347 0.08703,-0.03347 0.167358,-0.08703 l 0.08368,0.23765 q -0.07699,0.06025 -0.204178,0.103762 -0.123845,0.04351 -0.287856,0.04351 z"
         style="font-style:normal;font-variant:normal;font-weight:normal;font-stretch:normal;font-size:3.34717178px;font-family:'Ubuntu Condensed';-inkscape-font-specification:'Ubuntu Condensed, ';fill:#ffffff"
         id="path4189" />
      <path
         d="m 34.521909,41.354249 q 0.08703,-0.03682 0.184095,-0.0569 0.09707,-0.02343 0.210872,-0.02343 0.234302,0 0.381577,0.147276 0.147276,0.143928 0.147276,0.451868 l 0,1.164816 q -0.120498,0.03347 -0.247691,0.05355 -0.123845,0.02008 -0.244344,0.02008 -0.120498,0 -0.227607,-0.03012 -0.103763,-0.03012 -0.184095,-0.09707 -0.07699,-0.06694 -0.123845,-0.167359 -0.04686,-0.103762 -0.04686,-0.251038 0,-0.137234 0.04017,-0.237649 0.04351,-0.103762 0.117151,-0.170705 0.07364,-0.07029 0.174053,-0.103763 0.100415,-0.03682 0.217566,-0.03682 0.110456,0 0.244343,0.02678 l 0,-0.160665 q 0,-0.194136 -0.07699,-0.27112 -0.07364,-0.07699 -0.214219,-0.07699 -0.07699,0 -0.147275,0.01674 -0.06694,0.01339 -0.143929,0.04686 l -0.06025,-0.244344 z m 0.137234,1.208329 q 0,0.15397 0.08033,0.227608 0.08033,0.07364 0.227608,0.07364 0.09037,0 0.197483,-0.02343 l 0,-0.558978 q -0.100415,-0.02678 -0.197483,-0.02678 -0.0636,0 -0.120498,0.01674 -0.0569,0.01339 -0.100415,0.05021 -0.04017,0.03347 -0.0636,0.09372 -0.02343,0.0569 -0.02343,0.147275 z"
         style="font-style:normal;font-variant:normal;font-weight:normal;font-stretch:normal;font-size:3.34717178px;font-family:'Ubuntu Condensed';-inkscape-font-specification:'Ubuntu Condensed, ';fill:#ffffff"
         id="path4191" />
      <path
         d="m 36.230954,42.810269 q 0.09707,0.05356 0.207525,0.05356 0.08368,0 0.147275,-0.03347 0.0636,-0.03347 0.10711,-0.110457 0.04686,-0.07699 0.07029,-0.204177 0.02343,-0.127193 0.02343,-0.314634 0,-0.361495 -0.09372,-0.515465 -0.09037,-0.157317 -0.291204,-0.157317 -0.03682,0 -0.08033,0.0067 -0.04351,0.0033 -0.09037,0.01674 l 0,1.258537 z m 0,0.883653 -0.287857,0 0,-2.329631 q 0.09372,-0.04017 0.210872,-0.0636 0.120498,-0.02678 0.244344,-0.02678 0.184094,0 0.314634,0.0636 0.133887,0.0636 0.214219,0.184095 0.08368,0.117151 0.120498,0.291204 0.04017,0.170706 0.04017,0.391619 0,0.445174 -0.143928,0.679476 -0.140581,0.234302 -0.46191,0.234302 -0.07699,0 -0.137234,-0.01674 -0.06025,-0.01339 -0.113804,-0.04017 l 0,0.632615 z"
         style="font-style:normal;font-variant:normal;font-weight:normal;font-stretch:normal;font-size:3.34717178px;font-family:'Ubuntu Condensed';-inkscape-font-specification:'Ubuntu Condensed, ';fill:#ffffff"
         id="path4193" />
      <path
         d="m 37.753238,42.870518 q 0.127192,0 0.190788,-0.07029 0.06694,-0.07364 0.06694,-0.190789 0,-0.07364 -0.02678,-0.123846 -0.02678,-0.05355 -0.07029,-0.09372 -0.04351,-0.04017 -0.100415,-0.07029 -0.0569,-0.03347 -0.113804,-0.07029 -0.0569,-0.03347 -0.110457,-0.07699 -0.05355,-0.04686 -0.09707,-0.103762 -0.04017,-0.06025 -0.06694,-0.133887 -0.02343,-0.07698 -0.02343,-0.1774 0,-0.217566 0.133886,-0.351453 0.137234,-0.133887 0.368189,-0.133887 0.09707,0 0.184095,0.02678 0.08703,0.02343 0.143928,0.05355 l -0.0636,0.230955 q -0.06025,-0.03347 -0.120498,-0.05021 -0.06025,-0.01674 -0.13054,-0.01674 -0.107109,0 -0.170706,0.0636 -0.0636,0.06025 -0.0636,0.1774 0,0.06694 0.02343,0.117151 0.02343,0.04686 0.06025,0.08703 0.04017,0.03682 0.08703,0.07029 0.05021,0.03347 0.103762,0.0636 0.0636,0.03682 0.123845,0.08033 0.0636,0.04351 0.110457,0.103762 0.05021,0.0569 0.08033,0.137234 0.03012,0.07699 0.03012,0.187442 0,0.230954 -0.137234,0.371536 -0.133887,0.140581 -0.394967,0.140581 -0.133886,0 -0.240996,-0.03682 -0.107109,-0.03682 -0.160664,-0.06694 l 0.06025,-0.237649 q 0.05021,0.02678 0.133887,0.06025 0.08703,0.03347 0.190789,0.03347 z"
         style="font-style:normal;font-variant:normal;font-weight:normal;font-stretch:normal;font-size:3.34717178px;font-family:'Ubuntu Condensed';-inkscape-font-specification:'Ubuntu Condensed, ';fill:#ffffff"
         id="path4195" />
      <path
         d="m 40.36105,42.816963 0,0.257733 -1.034276,0 0,-2.31959 0.301246,0 0,2.061857 0.73303,0 z"
         style="font-style:normal;font-variant:normal;font-weight:normal;font-stretch:normal;font-size:3.34717178px;font-family:'Ubuntu Condensed';-inkscape-font-specification:'Ubuntu Condensed, ';fill:#ffffff"
         id="path4197" />
      <path
         d="m 41.833701,42.197737 q 0,0.207524 -0.03682,0.37823 -0.03682,0.167359 -0.113804,0.287857 -0.07364,0.120498 -0.190788,0.187441 -0.113804,0.06694 -0.271121,0.06694 -0.157317,0 -0.274468,-0.06694 -0.117151,-0.06694 -0.194136,-0.187441 -0.07364,-0.120498 -0.110457,-0.287857 -0.03682,-0.170706 -0.03682,-0.37823 0,-0.204178 0.03682,-0.374884 0.03682,-0.170705 0.110457,-0.291204 0.07699,-0.123845 0.194136,-0.190788 0.117151,-0.06694 0.274468,-0.06694 0.157317,0 0.271121,0.06694 0.117151,0.06694 0.190788,0.190788 0.07699,0.120499 0.113804,0.291204 0.03682,0.170706 0.03682,0.374884 z m -0.301245,0 q 0,-0.147276 -0.01674,-0.267774 -0.01674,-0.123846 -0.05356,-0.210872 -0.03682,-0.09037 -0.09707,-0.137234 -0.06025,-0.05021 -0.143928,-0.05021 -0.08703,0 -0.147276,0.05021 -0.0569,0.04686 -0.09707,0.137234 -0.03682,0.08703 -0.05355,0.210872 -0.01674,0.120498 -0.01674,0.267774 0,0.147275 0.01674,0.27112 0.01674,0.120499 0.05355,0.207525 0.04017,0.08703 0.09707,0.137234 0.06025,0.04686 0.147276,0.04686 0.08368,0 0.143928,-0.04686 0.06025,-0.05021 0.09707,-0.137234 0.03682,-0.08703 0.05356,-0.207525 0.01674,-0.123845 0.01674,-0.27112 z"
         style="font-style:normal;font-variant:normal;font-weight:normal;font-stretch:normal;font-size:3.34717178px;font-family:'Ubuntu Condensed';-inkscape-font-specification:'Ubuntu Condensed, ';fill:#ffffff"
         id="path4199" />
      <path
         d="m 42.790626,43.118209 q -0.180747,0 -0.301245,-0.07029 -0.120498,-0.07029 -0.197483,-0.190789 -0.07364,-0.123845 -0.10711,-0.291204 -0.03012,-0.167358 -0.03012,-0.364841 0,-0.435133 0.157317,-0.679476 0.160664,-0.247691 0.481993,-0.247691 0.09707,0 0.174052,0.02343 0.07699,0.02343 0.143929,0.06025 l -0.07364,0.23765 q -0.103762,-0.06694 -0.230955,-0.06694 -0.180747,0 -0.267774,0.164012 -0.08368,0.164011 -0.08368,0.50877 0,0.143928 0.01674,0.267773 0.01674,0.120499 0.0569,0.207525 0.04351,0.08703 0.110457,0.137234 0.07029,0.05021 0.1774,0.05021 0.07364,0 0.130539,-0.01674 0.06025,-0.02008 0.113804,-0.05021 l 0.0636,0.224261 q -0.05355,0.03682 -0.143929,0.06694 -0.08703,0.03012 -0.190789,0.03012 z"
         style="font-style:normal;font-variant:normal;font-weight:normal;font-stretch:normal;font-size:3.34717178px;font-family:'Ubuntu Condensed';-inkscape-font-specification:'Ubuntu Condensed, ';fill:#ffffff"
         id="path4201" />
      <path
         d="m 44.526187,41.31743 q -0.140581,0.240997 -0.271121,0.441827 -0.127193,0.197483 -0.254385,0.371536 0.08033,0.09372 0.164011,0.210872 0.08368,0.117151 0.160665,0.244344 0.07698,0.123845 0.143928,0.251037 0.06694,0.123846 0.113804,0.23765 l -0.314634,0 q -0.05021,-0.110457 -0.117151,-0.230955 -0.06694,-0.120498 -0.140582,-0.234302 -0.07364,-0.117151 -0.147275,-0.220914 -0.07364,-0.103762 -0.137234,-0.174053 l 0,0.860224 -0.287857,0 0,-2.547198 0.287857,-0.05021 0,1.596601 q 0.06025,-0.08033 0.127192,-0.180747 0.07029,-0.100415 0.137234,-0.20083 0.06694,-0.103763 0.127193,-0.200831 0.06025,-0.09707 0.100415,-0.174053 l 0.30794,0 z"
         style="font-style:normal;font-variant:normal;font-weight:normal;font-stretch:normal;font-size:3.34717178px;font-family:'Ubuntu Condensed';-inkscape-font-specification:'Ubuntu Condensed, ';fill:#ffffff"
         id="path4203" />
    </g>
    <g
       transform="translate(13.375,33.875)"
       id="text4949"
       style="font-style:normal;font-weight:normal;font-size:40px;line-height:125%;font-family:sans-serif;letter-spacing:0px;word-spacing:0px;fill:#ffffff;fill-opacity:1;stroke:none;stroke-width:1px;stroke-linecap:butt;stroke-linejoin:miter;stroke-opacity:1">
      <g
         style="fill:#ffffff"
         id="g4996">
        <path
           inkscape:connector-curvature="0"
           id="path4954"
           d="M 3.3432497,1.157291 C 3.1412816,1.3066157 2.9393143,1.4555673 2.7370789,1.6045272 2.5065936,1.7734415 2.2762795,1.9416871 2.0459773,2.1094996 1.8122107,2.2798561 1.5784492,2.4497862 1.3447511,2.61923 c 0,0 -7e-7,5e-7 -7e-7,5e-7 -0.217727,0.1578639 -0.43540232,0.3153186 -0.65263537,0.4718815 -0.086951,0.1349097 -0.1966654,0.2878979 -0.31787934,0.4498464 0,0 -3.8e-7,5e-7 -3.8e-7,5e-7 -0.13847703,0.1850129 -0.29064457,0.3808978 -0.45470682,0.5860696 -0.16619733,0.2078418 -0.34515819,0.4256608 -0.53760485,0.6536326 -0.17218328,0.2053408 -0.35811046,0.4210564 -0.56562004,0.6513673 -2e-7,0 -3e-7,0 -3e-7,0 -0.070703,-0.00304 -0.1411536,-0.00607 -0.2113531,-0.00909 0.1918394,-0.2163204 0.3673299,-0.4212009 0.52903189,-0.6157245 0,0 4.1e-7,-5e-7 4.1e-7,-5e-7 0.17177561,-0.2053966 0.32865623,-0.3997181 0.4696299,-0.5817319 0,0 4e-7,-5e-7 4e-7,-5e-7 C -0.25506957,4.0461612 -0.12682412,3.8769 -0.01438925,3.7201345 0.08759324,3.5795191 0.1765568,3.4490501 0.24428997,3.3356705 -0.48343947,4.0080675 -1.2270832,4.6951689 -1.987168,5.3974612 c -0.057757,-0.00248 -0.1153426,-0.00496 -0.1727569,-0.00743 1.57891413,-1.4550777 3.08786807,-2.8456823 4.5314114,-4.1760065 0,0 5e-7,-5e-7 1e-6,-9e-7 0.059981,-0.0035 0.1201295,-0.00701 0.1804457,-0.010534 C 1.9214039,1.7860746 1.2785176,2.3800795 0.62290753,2.9858408 0.82877834,2.8386952 1.0355114,2.6901871 1.242435,2.5411411 c 6e-7,-5e-7 6e-7,-5e-7 1.3e-6,-1e-6 C 1.4721574,2.3748016 1.7019471,2.2079887 1.931799,2.0406928 2.1472964,1.8838447 2.3628816,1.7265187 2.5787956,1.56837 2.7572108,1.4377266 2.9362834,1.3059555 3.1177826,1.1704535 c 0.074899,-0.00437 0.1500542,-0.00876 0.2254671,-0.013162 0,0 0,0 0,0"
           style="font-style:normal;font-variant:normal;font-weight:normal;font-stretch:normal;font-size:12.5px;font-family:Ubuntu;-inkscape-font-specification:Ubuntu;fill:#ffffff" />
        <path
           inkscape:connector-curvature="0"
           id="path4956"
           d="M 0.66725277,3.7639028 C 0.93990252,3.5086439 1.2231034,3.2525473 1.5014837,3.0181651 1.731702,2.8239553 1.9600026,2.6403186 2.1629798,2.4915754 c 0,0 0,0 2e-7,0 0.183581,-0.1345297 0.3473561,-0.242446 0.4755455,-0.3123746 0,0 0,0 10e-8,0 0.1253686,-0.06839 0.2222971,-0.1063415 0.2815582,-0.1085948 0.1187489,-0.00452 0.1128276,0.1135493 -0.104637,0.390223 0,0 0,0 -5e-7,5e-7 C 2.55991,2.7876811 2.0823484,3.2594741 1.6107459,3.7069073 1.574713,3.7410935 1.538645,3.7753131 1.5025348,3.8095726 c 0,0 -5e-7,6e-7 -5e-7,6e-7 -0.038501,0.036528 -0.077659,0.07312 -0.1173477,0.1094435 -0.2339735,-0.00105 -0.46536214,-0.00208 -0.69420812,-0.00311 -0.29693399,0.2847838 -0.59011466,0.582701 -0.75183513,0.7921293 -0.16808188,0.2176663 -0.13583969,0.2797985 -0.04707831,0.2825516 0,0 1.6e-7,0 1.6e-7,0 0.05315715,0.00165 0.1174711,-0.00673 0.21489474,-0.048164 0.0659368,-0.029449 0.13332336,-0.0601 0.21849687,-0.1098471 -0.17380923,0.1729435 -0.34863755,0.3468998 -0.52449221,0.5218779 -0.10614844,0.064829 -0.17814306,0.092791 -0.25174746,0.1232033 -0.11384845,0.0477 -0.19424102,0.061961 -0.25610698,0.05917 0,0 -1.5e-7,0 -1.5e-7,0 -0.0767359,-0.00346 -0.11781945,-0.041063 -0.082807,-0.143607 0,0 4.2e-7,-5e-7 4.2e-7,-5e-7 0.0347455,-0.089482 0.11512638,-0.2172262 0.24769511,-0.3822479 0.12959515,-0.1613201 0.30265533,-0.3527016 0.49792583,-0.5540416 0.22103712,-0.226058 0.46336801,-0.4608832 0.71132844,-0.6930275 0,0 0,0 0,0 M 1.7008308,3.4403185 C 1.946585,3.2089136 2.1790217,2.9720988 2.3187252,2.797183 2.4518765,2.6333574 2.4769403,2.5476742 2.4101428,2.5495026 c 0,0 0,0 0,0 -0.038666,0.00106 -0.1030233,0.026043 -0.196087,0.082374 -0.081206,0.048473 -0.1795355,0.115777 -0.288268,0.1977956 0,0 0,0 0,0 C 1.8143269,2.9137485 1.6938343,3.0108379 1.5717761,3.1140175 1.447138,3.2204397 1.321431,3.331205 1.1977221,3.4437586 c 0.1663721,-0.00114 0.3340697,-0.00228 0.5031087,-0.00344 0,0 0,0 0,0"
           style="font-style:normal;font-variant:normal;font-weight:normal;font-stretch:normal;font-size:12.5px;font-family:Ubuntu;-inkscape-font-specification:Ubuntu;fill:#ffffff" />
        <path
           inkscape:connector-curvature="0"
           id="path4958"
           d="m -0.80824443,6.1444906 c -0.0122068,0.029275 -0.013274,0.049103 -0.0110245,0.065909 -8.5905e-4,0.023434 0.008793,0.037692 0.0319832,0.039154 0.0598355,0.00377 0.16588346,-0.033507 0.35257286,-0.1641588 0.19658434,-0.1360274 0.44317579,-0.3381216 0.68402712,-0.5414445 5.8e-7,-6e-7 5.8e-7,-6e-7 5.8e-7,-6e-7 C 0.75109674,4.977607 1.2661524,4.4088336 1.7877167,3.8425675 c 5e-7,-5e-7 4e-7,-5e-7 9e-7,-10e-7 0.5278332,-0.5710551 1.0696312,-1.1437654 1.62226,-1.7144749 0.067617,-0.00245 0.1354423,-0.00492 0.2034756,-0.00739 C 3.4198283,2.32032 3.227796,2.5200787 3.0363578,2.7203551 c 0,0 -6e-7,6e-7 -6e-7,6e-7 C 2.8226057,2.945421 2.6098183,3.1710334 2.3976077,3.3973324 2.1743909,3.6353683 1.9531801,3.8734785 1.7340362,4.1115097 c 0,0 -6e-7,6e-7 -6e-7,6e-7 C 1.516388,4.3479161 1.3015204,4.5838601 1.0906417,4.818472 1.6187074,4.3616589 2.1416272,3.9040279 2.6574567,3.4466212 3.1673391,2.994488 3.6703113,2.5455864 4.1660381,2.1006474 c 0.067153,-0.00244 0.1345069,-0.00488 0.2020631,-0.00733 -6e-7,5e-7 -6e-7,5e-7 -1.1e-6,10e-7 C 3.6973344,2.6941714 3.013279,3.3007249 2.3178463,3.9099521 1.6684299,4.47849 1.0096351,5.0483056 0.34552762,5.6132852 0.12804768,5.7977085 -0.0890903,5.978371 -0.29867312,6.1454381 c 0,0 -7.5e-7,5e-7 -7.5e-7,5e-7 C -0.47285235,6.2860589 -0.64168106,6.4161423 -0.79009626,6.5201829 -0.92871737,6.6173577 -1.046457,6.6888 -1.1368557,6.7317276 c -1e-7,0 -1e-7,0 -3e-7,-1e-7 -0.1010115,0.048763 -0.1693417,0.063815 -0.2175058,0.060071 -0.015026,-0.00117 -0.024544,-0.00755 -0.029934,-0.017663 -2e-7,0 -2e-7,0 -3e-7,0 -0.010746,-0.00598 -0.016261,-0.016802 -0.016923,-0.031913 -1e-7,0 -1e-7,0 -3e-7,0 -0.00419,-0.010159 -0.00561,-0.022807 -0.00363,-0.038428 0.00236,-0.011014 0.00453,-0.021905 0.011884,-0.03715 0.1958421,-0.1748881 0.3907459,-0.3489374 0.58471647,-0.5221538 0,0 0,0 0,0"
           style="font-style:normal;font-variant:normal;font-weight:normal;font-stretch:normal;font-size:12.5px;font-family:Ubuntu;-inkscape-font-specification:Ubuntu;fill:#ffffff" />
        <path
           inkscape:connector-curvature="0"
           id="path4960"
           d="M 4.6242204,2.2236119 C 4.7240334,2.1583489 4.8052392,2.1151879 4.8836717,2.074598 4.9960984,2.017178 5.0761791,1.994682 5.1351648,1.992447 c 0.074115,-0.00281 0.1123652,0.030386 0.086941,0.1188794 2e-7,0 2e-7,0 2e-7,0 -0.021642,0.080235 -0.090246,0.2009828 -0.2037432,0.3542084 0,0 -5e-7,5e-7 -3e-7,5e-7 C 4.8990099,2.6266661 4.7336897,2.8203295 4.5454546,3.025144 4.3315418,3.2595868 4.0877967,3.5091358 3.8328255,3.7596901 3.5651913,4.0226881 3.2815389,4.2894477 2.9969458,4.5394139 c -5e-7,6e-7 -5e-7,6e-7 -5e-7,6e-7 -0.2476027,0.218254 -0.4954711,0.4234334 -0.7180259,0.590479 0,0 -8e-7,5e-7 -8e-7,5e-7 -0.2199139,0.1650633 -0.4126024,0.2915436 -0.5663756,0.3748776 -2e-7,0 -2e-7,0 -2e-7,0 -0.171389,0.09288 -0.2900067,0.1281526 -0.3679966,0.124633 C 1.2631978,5.6257335 1.1977537,5.6067011 1.1677166,5.555194 1.1459733,5.5179149 1.1280459,5.4772716 1.1265881,5.4220739 2.8679633,3.7370096 4.520339,2.138067 6.090369,0.61880723 6.1900489,0.58252477 6.289903,0.546181 6.3899372,0.50977048 5.8124829,1.0702596 5.2240167,1.6414372 4.6242204,2.2236119 c 0,0 0,0 0,0 M 1.7935398,4.9711294 c 9.618e-4,0.025989 0.012603,0.04241 0.02536,0.057773 0.027455,0.018363 0.068918,0.02359 0.1143274,0.024999 0.094987,0.00295 0.307595,-0.1069325 0.6055631,-0.3330699 0,0 0,0 0,0 C 2.8765053,4.4633685 3.2711815,4.1011213 3.6199361,3.7595506 3.7925911,3.590452 3.9594235,3.4219757 4.1136375,3.2590368 4.247225,3.1178904 4.3687285,2.9814563 4.4597081,2.8654527 c 0,0 0,0 0,0 0.088014,-0.1109221 0.1439897,-0.199952 0.1629234,-0.2574734 0.028023,-0.070247 0.00189,-0.094122 -0.049071,-0.092755 -0.051787,0.00139 -0.1301055,0.028478 -0.2371099,0.087334 -2e-7,0 -2e-7,0 -2e-7,0 -0.083838,0.046112 -0.1740947,0.098724 -0.2838789,0.1759092 -0.7355587,0.7139486 -1.4883649,1.444638 -2.2590313,2.1926628 0,0 0,0 0,0"
           style="font-style:normal;font-variant:normal;font-weight:normal;font-stretch:normal;font-size:12.5px;font-family:Ubuntu;-inkscape-font-specification:Ubuntu;fill:#ffffff" />
        <path
           inkscape:connector-curvature="0"
           id="path4962"
           d="M 5.1750374,3.7605699 C 4.910215,4.0264102 4.6294745,4.2960758 4.3461542,4.5498335 4.0944329,4.7752894 3.8417188,4.9882363 3.6106394,5.1657273 3.3881039,5.337882 3.1878819,5.47502 3.0260734,5.5673028 c 0,0 0,0 0,0 -0.1658118,0.092414 -0.2858772,0.1327415 -0.3614701,0.1293168 -2e-7,0 -2e-7,0 -2e-7,0 -0.07533,-0.00341 -0.1069076,-0.050295 -0.080509,-0.1478688 0.029817,-0.097303 0.1093408,-0.2372199 0.2326612,-0.4087181 0,0 0,0 0,0 C 2.9467054,4.9614958 3.1218562,4.7513557 3.3193262,4.5311704 3.5423237,4.2825211 3.7977987,4.0191979 4.060784,3.7598395 4.3193493,3.5048401 4.5889734,3.2503645 4.856989,3.0137537 5.095057,2.8031469 5.3326623,2.6042127 5.5498724,2.4381334 c 0,0 2e-7,0 7e-7,-6e-7 0.2049296,-0.1555976 0.3898473,-0.2803634 0.5388158,-0.3635909 0.1592747,-0.090915 0.278097,-0.1349905 0.3554258,-0.1379308 0,0 1e-7,0 1e-7,0 0.077583,-0.00295 0.1142165,0.035475 0.096283,0.1219556 0,0 2e-7,0 -3e-7,5e-7 C 6.5274573,2.1373344 6.465281,2.259525 6.3573229,2.4155877 6.2448022,2.5805546 6.0824979,2.7820069 5.8936311,2.997457 5.6826661,3.2387789 5.4353558,3.4992509 5.1750374,3.7605699 c 0,0 0,0 0,0 M 4.9491643,3.7604218 C 5.287746,3.4217663 5.6144216,3.0728173 5.8048519,2.8133698 5.9683454,2.5941323 5.9999127,2.4705297 5.9048505,2.4730926 5.8095658,2.4756615 5.588652,2.603974 5.3113172,2.8230955 c 0,0 0,0 0,0 C 4.982072,3.0835403 4.6142632,3.4271543 4.2779368,3.7599819 3.9358811,4.098479 3.5973088,4.4547616 3.3840642,4.7329548 c -5e-7,6e-7 -5e-7,6e-7 -5e-7,6e-7 -0.1752424,0.231956 -0.2155852,0.366646 -0.1222707,0.369556 0.093104,0.0029 0.3189723,-0.1264292 0.6099579,-0.3584745 0.348051,-0.2772196 0.7330131,-0.6391396 1.0774134,-0.9836151 0,0 0,0 0,0"
           style="font-style:normal;font-variant:normal;font-weight:normal;font-stretch:normal;font-size:12.5px;font-family:Ubuntu;-inkscape-font-specification:Ubuntu;fill:#ffffff" />
        <path
           inkscape:connector-curvature="0"
           id="path4964"
           d="m 4.5298692,5.1572993 c 0.046383,0.00146 0.094501,0.00127 0.1466919,-0.00302 0.042947,-0.00715 0.08933,-0.017733 0.1476246,-0.041319 0.3739053,-0.3813065 0.7433785,-0.7580931 1.1084968,-1.1304387 0.010911,-0.036499 -0.00709,-0.046983 -0.024183,-0.057596 -0.020524,-0.023229 -0.059133,-0.028852 -0.1028537,-0.029008 -0.036329,-1.292e-4 -0.080507,0.0078 -0.129496,0.020908 -0.049474,0.013663 -0.1148662,0.044213 -0.1942698,0.091821 0,0 0,0 0,0 -0.071697,0.042033 -0.1615623,0.106127 -0.2593305,0.1845184 0,0 0,0 0,0 -0.1066671,0.08443 -0.227117,0.1980123 -0.335711,0.3078058 0,0 0,0 0,0 -0.191966,0.1940862 -0.3777917,0.4046159 -0.4266177,0.5102334 -0.0498,0.1144698 -0.0022,0.1438337 0.069648,0.1460985 0,0 0,0 0,0 M 7.73006,1.8877153 c 0.077785,-0.00296 0.1354786,0.015956 0.1312487,0.091735 0.00219,0.054846 -0.032114,0.1437023 -0.1185604,0.2716782 -0.077575,0.1193695 -0.196855,0.2693338 -0.3377812,0.4290407 -5e-7,6e-7 -5e-7,6e-7 -5e-7,6e-7 -0.1578257,0.1793954 -0.3351356,0.3678019 -0.5196795,0.5566859 -5e-7,5e-7 -5e-7,5e-7 -5e-7,5e-7 -0.7531567,0.7708692 -1.5252554,1.5611258 -2.317021,2.3715119 -0.041679,0.01318 -0.084428,0.027547 -0.1272044,0.041969 -0.05565,0.015613 -0.1088115,0.028612 -0.1607762,0.040401 -0.063519,0.014411 -0.1227041,0.024326 -0.1791814,0.031523 0,0 -2e-7,-1e-7 -2e-7,-1e-7 C 4.0369144,5.735098 3.9799298,5.740463 3.9305179,5.738242 3.8656799,5.735332 3.8198255,5.713178 3.8047635,5.66223 c -0.012905,-0.043649 0.00121,-0.112714 0.055131,-0.2145073 -2e-7,0 -2e-7,0 -2e-7,0 C 3.915469,5.3471167 4.0145607,5.2120038 4.1401045,5.0621085 4.2861807,4.8876982 4.4694223,4.6938536 4.657502,4.5043801 4.8389489,4.3215885 5.0333363,4.1370265 5.2197143,3.9786667 c 0,0 7e-7,-6e-7 7e-7,-6e-7 0.1686154,-0.1419533 0.3284975,-0.2635619 0.4619083,-0.3509992 0.1442887,-0.094567 0.2634088,-0.1572437 0.3606544,-0.19626 0.1088035,-0.043654 0.1962095,-0.063741 0.2644349,-0.064268 0.023491,-1.815e-4 0.042037,0.00468 0.056555,0.013461 0.018582,0.0042 0.032772,0.012826 0.040529,0.027561 0,0 2e-7,0 2e-7,0 0.011651,0.00792 0.022492,0.016661 0.030918,0.027727 0.00496,0.00652 0.01016,0.012827 0.013479,0.020914 0.059811,-0.060995 0.1195058,-0.1218713 0.1790833,-0.182628 0.1036885,-0.105741 0.2030192,-0.211096 0.2952376,-0.3133714 0.090097,-0.099541 0.1695558,-0.1950204 0.2266258,-0.2750503 0.06188,-0.084988 0.093395,-0.1483607 0.1000327,-0.1893101 0.016058,-0.059213 -0.019407,-0.07227 -0.067616,-0.070957 -0.065767,0.00179 -0.1427669,0.014911 -0.2424191,0.052583 -0.061996,0.021717 -0.1255926,0.044769 -0.2092535,0.090942 -6e-7,5e-7 -8e-7,5e-7 -8e-7,5e-7 C 6.8923715,2.3962926 7.0538853,2.224608 7.2144368,2.053948 7.3148685,1.9966383 7.3858053,1.973511 7.4571769,1.9491615 7.5669355,1.9085725 7.6559642,1.8905327 7.73006,1.8877153 c 0,0 0,0 0,0"
           style="font-style:normal;font-variant:normal;font-weight:normal;font-stretch:normal;font-size:12.5px;font-family:Ubuntu;-inkscape-font-specification:Ubuntu;fill:#ffffff" />
        <path
           inkscape:connector-curvature="0"
           id="path4966"
           d="m 9.0816889,1.8495006 c 0.023242,-8.776e-4 0.041155,0.00377 0.056367,0.011078 0.022584,0.00344 0.04075,0.011406 0.053699,0.024467 0.015508,0.00745 0.028565,0.017384 0.036931,0.031833 0.010109,0.00618 0.020471,0.01224 0.02289,0.025799 -0.1930587,0.1873327 -0.387198,0.3757154 -0.5824304,0.565158 0,0 -6e-7,5e-7 -6e-7,5e-7 -0.00167,-0.029694 -0.019017,-0.044697 -0.035104,-0.060658 -0.020486,-0.034119 -0.07095,-0.038961 -0.1269296,-0.03746 0,0 -2e-7,0 -2e-7,0 -0.044798,0.0012 -0.1033646,0.016777 -0.1732535,0.045263 -0.04292,0.016064 -0.084974,0.031157 -0.1310478,0.050819 -0.9960975,1.0298904 -2.0262158,2.0949557 -3.092127,3.1970283 -0.077506,-0.00333 -0.1547506,-0.00666 -0.2317348,-0.00997 0,0 -2e-7,0 -2e-7,0 C 6.0892279,4.4463388 7.2536346,3.2470677 8.3747269,2.0924079 8.506008,2.024073 8.6199535,1.976219 8.7278177,1.9350593 c 0.1451256,-0.058545 0.2590702,-0.081979 0.3538712,-0.085559 0,0 0,0 0,0"
           style="font-style:normal;font-variant:normal;font-weight:normal;font-stretch:normal;font-size:12.5px;font-family:Ubuntu;-inkscape-font-specification:Ubuntu;fill:#ffffff" />
        <path
           inkscape:connector-curvature="0"
           id="path4968"
           d="m 9.6738921,2.6589766 c 0.04162,-0.084995 0.049595,-0.1418642 0.050351,-0.1912523 9.599e-4,-0.062769 -0.036601,-0.089672 -0.1007302,-0.087952 0,0 0,0 0,0 -0.063651,0.00171 -0.1556033,0.032434 -0.2854891,0.1115092 0,0 0,0 0,0 C 9.227087,2.5578688 9.0904207,2.6581666 8.9446096,2.7796101 8.789125,2.908047 8.6246052,3.0582757 8.4642987,3.2133026 c 0,0 0,0 0,0 C 8.2793545,3.392157 8.0971728,3.5769151 7.9205681,3.7623695 7.563553,4.1372747 7.2135331,4.5362544 7.0305976,4.8236321 c 0,0 0,0 0,0 -0.1603145,0.2543831 -0.1595659,0.3834266 -0.041291,0.3870952 0,0 0,0 3e-7,0 0.05605,0.00174 0.1160049,-3.92e-4 0.1903816,-0.01825 2e-7,0 2e-7,0 2e-7,0 0.05132,-0.015086 0.1036742,-0.031162 0.1663977,-0.059364 0.7964725,-0.8465406 1.5721397,-1.670968 2.3278053,-2.4741364 0,0 0,0 0,0 M 11.960413,0.22871962 C 12.078484,0.18749325 12.196788,0.14618791 12.315331,0.10479749 10.682123,1.8481663 8.9493488,3.6978156 7.1076206,5.6637684 6.9777495,5.7213634 6.8624481,5.7618929 6.7509859,5.7983312 c -2e-7,0 -2e-7,0 -2e-7,0 -0.152952,0.050003 -0.2724718,0.06276 -0.3748575,0.058139 -0.097374,-0.00439 -0.1540057,-0.052074 -0.1424978,-0.1627145 0.010251,-0.098556 0.071496,-0.2435637 0.1864451,-0.4291309 0,0 4e-7,-6e-7 4e-7,-6e-7 0.1162375,-0.1876461 0.2853577,-0.4139635 0.4820408,-0.6529712 0,0 3e-7,-6e-7 3e-7,-6e-7 C 7.1306201,4.3371217 7.3942048,4.047397 7.6669457,3.7622033 7.926649,3.4906424 8.1964535,3.2202006 8.468842,2.9640282 8.7074738,2.7411045 8.9483008,2.5294431 9.1725254,2.3506828 9.3837409,2.1822939 9.5781783,2.0457789 9.739059,1.9521838 c 0,0 8e-7,-6e-7 8e-7,-6e-7 0.1767465,-0.1017977 0.3074212,-0.1458304 0.3991282,-0.1493052 0.07188,-0.00272 0.124156,0.016174 0.133346,0.076146 0.0078,0.041598 0.01349,0.085862 -0.01188,0.1573711 0.578372,-0.6147289 1.145178,-1.21716604 1.700762,-1.80767548 0,0 0,0 0,0"
           style="font-style:normal;font-variant:normal;font-weight:normal;font-stretch:normal;font-size:12.5px;font-family:Ubuntu;-inkscape-font-specification:Ubuntu;fill:#ffffff" />
        <path
           inkscape:connector-curvature="0"
           id="path4970"
           d="M 9.9427376,5.1834711 C 9.7343174,5.4151639 9.5243832,5.6485399 9.3129182,5.8836176 8.9014695,5.8659161 8.4967312,5.8485033 8.0985398,5.8313722 c 0,0 -2e-7,-10e-8 -2e-7,-10e-8 1.6943735,-1.8435939 3.2948124,-3.5849801 4.8089164,-5.23242894 0.09292,-0.005424 0.186157,-0.0108677 0.279722,-0.0163299 0,0 0,-1e-8 0,-1e-8 C 11.860801,2.0328326 10.468055,3.5556164 9.0038329,5.156551 c 0.3090785,0.00886 0.6220225,0.017834 0.9389047,0.02692 0,0 0,0 0,0"
           style="font-style:normal;font-variant:normal;font-weight:normal;font-stretch:normal;font-size:12.5px;font-family:Ubuntu;-inkscape-font-specification:Ubuntu;fill:#ffffff" />
        <path
           inkscape:connector-curvature="0"
           id="path4972"
           d="m 11.379856,3.7725516 c 0.287907,-0.3210128 0.591449,-0.6424359 0.899142,-0.9361517 0.253875,-0.2430184 0.51046,-0.4726026 0.74674,-0.6585497 0,0 0,-6e-7 0,-6e-7 0.213563,-0.1680696 0.41102,-0.3030074 0.574022,-0.3906912 0,0 0,0 0,0 0.159429,-0.085762 0.291464,-0.1337102 0.384539,-0.1372492 0.186701,-0.0071 0.247088,0.1385953 0.06311,0.4834617 0,0 0,6e-7 0,6e-7 -0.215921,0.4088528 -0.703307,1.0022174 -1.197393,1.5672798 -0.03783,0.043262 -0.0757,0.086579 -0.113635,0.1299587 -10e-7,6e-7 -10e-7,6e-7 -10e-7,6e-7 -0.04045,0.046266 -0.08194,0.092627 -0.124437,0.1386607 -0.374772,-0.00168 -0.744315,-0.00333 -1.108737,-0.00496 -0.310843,0.3598413 -0.609141,0.7373294 -0.748833,1.0036691 -0.14556,0.2775283 -0.05952,0.3576861 0.08343,0.36212 0,0 0,0 0,0 0.08569,0.00266 0.183591,-0.00749 0.315754,-0.059866 0.08867,-0.037276 0.179001,-0.076088 0.286933,-0.1393105 -0.179762,0.2210418 -0.360865,0.4437312 -0.543322,0.6680869 -0.133244,0.082658 -0.232613,0.1179496 -0.333151,0.1563878 -0.155088,0.060291 -0.275387,0.077639 -0.375559,0.073118 0,0 0,0 0,0 -0.124131,-0.0056 -0.2103077,-0.054913 -0.2113247,-0.1871081 0,0 3e-7,-7e-7 3e-7,-7e-7 0.00577,-0.1151102 0.062815,-0.278786 0.1819104,-0.4895041 0.116203,-0.2056007 0.284379,-0.4488726 0.481864,-0.7042076 0.224121,-0.2860918 0.476577,-0.5826086 0.738941,-0.8751415 0,0 0,0 0,0 M 12.839235,3.364157 c 0.258139,-0.2915076 0.491338,-0.5891331 0.612181,-0.8083072 0.116638,-0.2048938 0.106451,-0.3114906 10e-4,-0.3086054 0,0 0,0 0,0 -0.06098,0.00167 -0.148894,0.033231 -0.264253,0.1039165 -0.101061,0.060836 -0.218453,0.1452005 -0.343914,0.2479561 0,0 0,0 0,0 -0.128662,0.1053779 -0.264248,0.227075 -0.398908,0.3564557 -0.136996,0.1335374 -0.273312,0.2726171 -0.405548,0.4140504 0.263802,-0.0018 0.530254,-0.00363 0.799398,-0.00547 0,0 0,0 0,0"
           style="font-style:normal;font-variant:normal;font-weight:normal;font-stretch:normal;font-size:12.5px;font-family:Ubuntu;-inkscape-font-specification:Ubuntu;fill:#ffffff" />
        <path
           inkscape:connector-curvature="0"
           id="path4974"
           d="m 15.374254,2.5378065 c 0.03254,-0.094291 0.02959,-0.157291 0.01936,-0.211962 -0.01299,-0.069452 -0.06574,-0.099076 -0.145005,-0.09695 0,0 0,0 0,0 -0.07865,0.00211 -0.185896,0.036396 -0.329358,0.1242614 0,0 0,0 0,0 -0.122748,0.073996 -0.269897,0.1853724 -0.423711,0.3202072 -0.164305,0.1426459 -0.335047,0.3095206 -0.499582,0.4817902 0,0 0,0 0,0 -0.189929,0.1988549 -0.375245,0.4043914 -0.553616,0.6108354 -0.360953,0.4177609 -0.708529,0.8630358 -0.873428,1.1843945 0,0 0,0 0,0 -0.144162,0.2848622 -0.115481,0.4298262 0.0322,0.434407 0,0 0,0 10e-7,0 0.07002,0.00217 0.144069,8e-6 0.232661,-0.019789 0,0 0,0 0,0 0.06054,-0.016771 0.122157,-0.034653 0.194042,-0.066136 0.805255,-0.947549 1.587063,-1.8675064 2.346431,-2.7610589 0,0 0,0 0,0 m 2.284121,-2.68773896 c 0.13718,-0.0461097 0.274661,-0.0923178 0.412451,-0.13863117 C 16.443919,1.637231 14.70634,3.694031 12.846398,5.8956733 c -0.149232,0.064346 -0.283995,0.1094931 -0.414836,0.1500325 0,0 0,0 0,0 -0.179495,0.055616 -0.325353,0.069352 -0.453569,0.063566 -0.121878,-0.0055 -0.20233,-0.059592 -0.211567,-0.1842417 -0.0082,-0.1109475 0.03691,-0.2738277 0.139935,-0.4819102 0,0 0,-7e-7 0,-7e-7 0.104077,-0.21021 0.265297,-0.4633849 0.457767,-0.7304295 0,0 0,-6e-7 0,-6e-7 0.22404,-0.3063973 0.487979,-0.629352 0.763947,-0.9469058 0,0 0,-7e-7 0,-7e-7 0.262512,-0.3020708 0.53752,-0.6026171 0.818615,-0.8870842 0.246407,-0.2473661 0.497864,-0.4821227 0.735933,-0.6803559 0.224171,-0.1866603 0.434613,-0.3380378 0.613065,-0.4419322 0,0 10e-7,-6e-7 10e-7,-6e-7 0.196282,-0.1130076 0.348478,-0.1621582 0.461539,-0.1664422 0,0 0,0 0,0 0.08865,-0.00336 0.157896,0.017209 0.182986,0.083289 0.01914,0.045848 0.03636,0.094665 0.02113,0.1737206 0.578367,-0.6805673 1.143904,-1.34603863 1.697034,-1.99690956 0,0 0,0 0,0"
           style="font-style:normal;font-variant:normal;font-weight:normal;font-stretch:normal;font-size:12.5px;font-family:Ubuntu;-inkscape-font-specification:Ubuntu;fill:#ffffff" />
        <path
           inkscape:connector-curvature="0"
           id="path4976"
           d="m 18.92746,0.24750197 c 0.114966,-0.006712 0.230376,-0.0134491 0.346232,-0.0202127 0,0 0,6.2e-7 0,6.2e-7 C 17.772367,2.06478 16.174624,4.0202761 14.470867,6.1055247 c 0,0 0,0 0,0 -0.117169,-0.00504 -0.233842,-0.01006 -0.350022,-0.015059 1.70447,-2.0719686 3.303512,-4.0157786 4.806615,-5.84296393 0,0 0,0 0,0"
           style="font-style:normal;font-variant:normal;font-weight:normal;font-stretch:normal;font-size:12.5px;font-family:Ubuntu;-inkscape-font-specification:Ubuntu;fill:#ffffff" />
        <path
           inkscape:connector-curvature="0"
           id="path4978"
           d="m 18.665577,1.6933174 c 0.14966,-0.060987 0.288924,-0.1069181 0.426517,-0.1503834 0.19488,-0.061561 0.362371,-0.085095 0.516064,-0.090899 0.132764,-0.00501 0.243201,0.022045 0.273395,0.1347077 0,0 0,0 0,0 0.02808,0.084408 0.0082,0.2199268 -0.07384,0.4035178 0,0 0,0 -1e-6,7e-7 -0.07685,0.1823699 -0.20856,0.4057581 -0.36804,0.6396776 C 19.251295,2.9062273 19.037504,3.193418 18.811416,3.4826106 18.123073,4.363083 17.415,5.2687918 16.686336,6.2008394 16.5648,6.1956107 16.443778,6.190404 16.323265,6.1852192 17.00327,5.3217875 17.665451,4.4809867 18.3105,3.6619402 c 0.192213,-0.244061 0.378201,-0.4873055 0.542241,-0.7223599 0,-7e-7 0,-7e-7 0,-1.4e-6 0.120113,-0.1689914 0.228973,-0.3361951 0.293922,-0.4735427 0.05528,-0.1168973 0.07143,-0.2048208 0.04917,-0.2519551 -0.02197,-0.064214 -0.08852,-0.08044 -0.168183,-0.078314 0,0 0,0 -1e-6,0 -0.03904,0.00104 -0.08038,0.00504 -0.123586,0.011519 0,0 0,0 -1e-6,0 -0.04332,0.00648 -0.08874,0.015729 -0.136548,0.028257 -0.0368,0.00609 -0.07563,0.01483 -0.11745,0.02769 -0.02646,0.00865 -0.05289,0.017254 -0.07989,0.026679 -1.003889,1.2520794 -2.049808,2.5565798 -3.140454,3.9168649 -0.11628,-0.005 -0.232079,-0.00998 -0.347401,-0.014946 1.251417,-1.5501083 2.444506,-3.027967 3.583253,-4.4385136 0,0 0,0 0,0"
           style="font-style:normal;font-variant:normal;font-weight:normal;font-stretch:normal;font-size:12.5px;font-family:Ubuntu;-inkscape-font-specification:Ubuntu;fill:#ffffff" />
        <path
           inkscape:connector-curvature="0"
           id="path4980"
           d="m 21.590448,2.4056715 c 0.01945,-0.1043543 0.0019,-0.1739718 -0.02286,-0.2343346 -0.03141,-0.076646 -0.10319,-0.1091635 -0.200744,-0.1065469 0,0 0,0 0,0 -0.09677,0.0026 -0.221785,0.040782 -0.379799,0.1381993 0,0 0,0 0,0 -0.135462,0.082048 -0.292927,0.2054455 -0.453557,0.3548058 -0.171944,0.1580692 -0.346661,0.3430181 -0.512639,0.534024 -10e-7,8e-7 -10e-7,8e-7 -10e-7,8e-7 -0.191714,0.2206136 -0.37641,0.448782 -0.552473,0.678119 -0.356679,0.4646025 -0.691544,0.9606409 -0.827371,1.3194119 0,0 0,0 0,0 -0.118098,0.3185153 -0.05201,0.4811671 0.131768,0.4868675 0,0 0,0 0,0 0.08717,0.0027 0.178448,5.567e-4 0.284012,-0.021334 0,0 0,0 0,0 0.07146,-0.018602 0.144027,-0.038449 0.226423,-0.073532 0.794408,-1.058989 1.56308,-2.0836696 2.307244,-3.0756812 0,0 0,0 0,0 m 2.22399,-2.9646986 c 0.159218,-0.0514791 0.318824,-0.10308023 0.478824,-0.15481098 -1.578209,2.12148738 -3.276,4.40372028 -5.107497,6.86568618 -0.171561,0.071764 -0.329223,0.1219516 -0.482958,0.1669544 0,0 0,0 0,0 -0.210839,0.061721 -0.388745,0.076403 -0.548813,0.06918 -0.152069,-0.00686 -0.262955,-0.068205 -0.300422,-0.2085064 -0.03332,-0.1247695 -0.01152,-0.3075035 0.07232,-0.5405127 0,0 0,-8e-7 0,-8e-7 0.08461,-0.2351415 0.230651,-0.5179082 0.412172,-0.8157671 0,0 1e-6,-8e-7 1e-6,-8e-7 0.211981,-0.3413414 0.4694,-0.7006425 0.742486,-1.05351 0,0 0,-7e-7 0,-7e-7 0.259487,-0.3352957 0.534426,-0.6685625 0.820052,-0.9837318 0.250605,-0.2738477 0.50998,-0.5336011 0.760609,-0.7529032 0.235903,-0.2064133 0.462488,-0.3738701 0.659962,-0.4889317 0,0 0,-7e-7 0,-7e-7 0.217482,-0.1251639 0.394618,-0.1799251 0.533372,-0.1851827 0,0 0,0 0,0 0.108836,-0.00412 0.199034,0.018164 0.244762,0.090754 0.03389,0.050381 0.06607,0.1040611 0.06483,0.1912242 0.563772,-0.75153904 1.113705,-1.48462869 1.6503,-2.1999388 0,0 0,0 0,0"
           style="font-style:normal;font-variant:normal;font-weight:normal;font-stretch:normal;font-size:12.5px;font-family:Ubuntu;-inkscape-font-specification:Ubuntu;fill:#ffffff" />
        <path
           inkscape:connector-curvature="0"
           id="path4982"
           d="m 20.174804,6.3509216 c -0.136734,-0.00588 -0.272855,-0.011739 -0.408369,-0.017569 0,0 0,0 0,0 1.268469,-1.7306719 2.471305,-3.3717964 3.613475,-4.9301496 0,0 0,0 0,0 0.13272,-0.00482 0.26599,-0.00966 0.399815,-0.014513 -1.139069,1.5679462 -2.339036,3.2197204 -3.604921,4.9622315 0,0 0,0 0,0 m 3.997023,-5.76992332 c -0.06693,0.003248 -0.09872,-0.0412804 -0.08373,-0.12727043 0.02289,-0.0962014 0.104626,-0.23730445 0.206136,-0.37562061 0.0993,-0.13529773 0.223292,-0.27557186 0.340644,-0.37060528 0,0 0,0 0,0 0.114429,-0.0927942 0.218119,-0.14773407 0.285311,-0.15200683 0.06612,-0.004204 0.09595,0.041475 0.0766,0.12973394 -0.01342,0.0874279 -0.09058,0.2264291 -0.19048,0.3641171 0,0 0,0 0,0 -0.102095,0.14071167 -0.231927,0.28593225 -0.354727,0.38600766 -0.113539,0.0923966 -0.213926,0.14245038 -0.279751,0.14564445 0,0 0,0 0,0"
           style="font-style:normal;font-variant:normal;font-weight:normal;font-stretch:normal;font-size:12.5px;font-family:Ubuntu;-inkscape-font-specification:Ubuntu;fill:#ffffff" />
        <path
           inkscape:connector-curvature="0"
           id="path4984"
           d="m 21.845241,6.5545614 c -0.176686,-0.00797 -0.31348,-0.073756 -0.366243,-0.2343745 -0.04319,-0.1403196 -0.02924,-0.3426358 0.0476,-0.59562 0.08006,-0.2533751 0.219997,-0.5523336 0.397591,-0.8653385 0,-8e-7 0,-8e-7 0,-8e-7 0.200611,-0.351736 0.442017,-0.7176903 0.700129,-1.0775977 0,0 0,-8e-7 0,-8e-7 C 22.879959,3.425167 23.156112,3.07086 23.446044,2.7399315 23.704568,2.4479689 23.9731,2.1734741 24.234246,1.9431883 c 0.253498,-0.2257862 0.499043,-0.4056787 0.715195,-0.5269046 0.238612,-0.1359471 0.441402,-0.2000879 0.603213,-0.2062405 0.106913,-0.00407 0.20134,0.010271 0.282515,0.042141 0,0 0,0 0,0 0.08088,0.031751 0.145247,0.085456 0.190029,0.161903 0,0 0,0 0,0 -0.199284,0.2430379 -0.399978,0.4877952 -0.602097,0.7342918 -0.02442,-0.067453 -0.06924,-0.1119947 -0.12382,-0.1435287 -0.06042,-0.036871 -0.138694,-0.050892 -0.227981,-0.048485 -0.203855,0.0055 -0.511588,0.1499539 -0.864655,0.4668597 0,8e-7 0,8e-7 0,8e-7 -0.403175,0.3650291 -0.801575,0.8725074 -1.14691,1.3587554 -0.178939,0.2519548 -0.348408,0.5069082 -0.495189,0.7552864 -0.124839,0.2160339 -0.228203,0.4253622 -0.289714,0.604325 -0.05664,0.1739229 -0.06689,0.3110396 -0.03768,0.4048933 0.04121,0.1065065 0.144278,0.1416633 0.267976,0.1455 0.105343,0.00327 0.225079,-0.013143 0.365357,-0.063404 0.102828,-0.036843 0.209419,-0.078939 0.330605,-0.1501439 0,-8e-7 0,-8e-7 0,-8e-7 -0.167033,0.2729021 -0.335622,0.5483024 -0.505747,0.8262367 0,0 0,0 -1e-6,9e-7 -0.06666,0.04617 -0.126055,0.075787 -0.183509,0.1025992 0,0 0,0 0,0 -0.0753,0.029715 -0.145746,0.051107 -0.213368,0.068111 -0.08517,0.027712 -0.164101,0.045223 -0.238313,0.055735 -0.07834,0.017895 -0.150636,0.026343 -0.214918,0.023442 0,0 0,0 0,0"
           style="font-style:normal;font-variant:normal;font-weight:normal;font-stretch:normal;font-size:12.5px;font-family:Ubuntu;-inkscape-font-specification:Ubuntu;fill:#ffffff" />
        <path
           inkscape:connector-curvature="0"
           id="path4986"
           d="m 24.424002,5.7844073 c 0.09616,0.00303 0.194218,0.00366 0.296421,-0.00168 0.08037,-0.00974 0.164239,-0.024464 0.258905,-0.058158 0.365007,-0.5537974 0.723806,-1.0981752 1.076552,-1.63337 0,0 0,0 0,0 -0.01632,-0.052385 -0.06414,-0.06748 -0.110213,-0.082748 -0.06632,-0.033343 -0.150883,-0.041483 -0.240023,-0.041799 -0.07401,-2.631e-4 -0.155493,0.010982 -0.241275,0.029622 -0.08615,0.019422 -0.186946,0.062949 -0.298373,0.1308439 0,0 0,0 0,0 -0.101613,0.059939 -0.217144,0.1514385 -0.333922,0.2634688 0,0 0,0 0,0 -0.128633,0.1207362 -0.255167,0.2834983 -0.361776,0.4411244 -0.188844,0.2792165 -0.34882,0.5832679 -0.339151,0.736927 0.01685,0.1670226 0.144077,0.2110788 0.292855,0.2157686 0,0 0,0 0,0 m 3.062919,-4.647911 c 0.154234,-0.00586 0.291314,0.018679 0.363834,0.1226794 0.06326,0.075306 0.08893,0.1983699 0.0505,0.376784 -0.02969,0.1667559 -0.11165,0.3771468 -0.227554,0.6019833 -0.129557,0.2532097 -0.289671,0.5199988 -0.464508,0.788236 0,0 -10e-7,8e-7 -10e-7,8e-7 -0.718274,1.1019834 -1.462604,2.24394 -2.234433,3.4280869 -0.07194,0.018637 -0.144817,0.039013 -0.217666,0.059465 0,0 0,0 0,0 -0.09804,0.02189 -0.193653,0.039927 -0.28802,0.056177 0,0 0,0 0,0 -0.115275,0.019852 -0.226264,0.033091 -0.33445,0.042334 0,0 0,0 0,0 -0.118022,0.017447 -0.228961,0.023924 -0.332174,0.019284 -0.13528,-0.00608 -0.251477,-0.040288 -0.334374,-0.1164524 0,0 0,0 0,0 -0.0709,-0.065137 -0.112803,-0.1671537 -0.107316,-0.3164022 0,0 0,0 0,0 0.01003,-0.147131 0.07291,-0.3437454 0.174038,-0.5610305 0.117353,-0.2521519 0.289536,-0.5312964 0.475465,-0.803307 0.178923,-0.2617612 0.381688,-0.5253467 0.594755,-0.7509709 0,0 0,-8e-7 0,-8e-7 0.193837,-0.2019412 0.390802,-0.3747176 0.56956,-0.4988719 0,0 0,-8e-7 0,-8e-7 0.193265,-0.1342323 0.368798,-0.2232513 0.52481,-0.2787634 0.174653,-0.062146 0.330772,-0.09093 0.468684,-0.091995 0.04753,-3.671e-4 0.09033,0.00642 0.129124,0.018782 0.04224,0.00587 0.08022,0.018014 0.11161,0.038858 0,0 0,0 0,0 0.03212,0.011183 0.06347,0.023528 0.09237,0.039192 0,0 0,0 0,0 0.01703,0.00923 0.03433,0.018166 0.04968,0.029634 0.0572,-0.086784 0.11424,-0.1733265 0.17112,-0.2596275 0.09888,-0.1500274 0.189155,-0.2992575 0.268085,-0.4438684 0.07742,-0.1405351 0.137374,-0.2750517 0.168183,-0.3875131 0.03526,-0.119266 0.0318,-0.2078544 0.0017,-0.2648141 -0.03035,-0.082354 -0.116082,-0.099845 -0.212307,-0.097224 -0.131146,0.00357 -0.272897,0.022986 -0.434427,0.076692 -0.102241,0.031015 -0.20627,0.063889 -0.326499,0.1290478 0,8e-7 0,8e-7 0,8e-7 0.146611,-0.2412088 0.291951,-0.4803874 0.43611,-0.717562 0.141849,-0.080535 0.260285,-0.1137099 0.378373,-0.1485833 0.178404,-0.05796 0.338976,-0.084671 0.485706,-0.09025 0,0 0,0 0,0"
           style="font-style:normal;font-variant:normal;font-weight:normal;font-stretch:normal;font-size:12.5px;font-family:Ubuntu;-inkscape-font-specification:Ubuntu;fill:#ffffff" />
        <path
           inkscape:connector-curvature="0"
           id="path4988"
           d="m 29.600633,1.1773969 c 0.339268,-0.012315 0.681829,-0.02475 1.027723,-0.037305 -0.156024,0.2535786 -0.313373,0.5093107 -0.472064,0.7672238 0,0 0,0 0,0 -0.34798,0.00895 -0.692565,0.017811 -1.033795,0.026587 0,0 0,0 0,0 -0.503082,0.7959759 -1.019519,1.6130811 -1.549849,2.4521682 -0.147021,0.2326162 -0.290354,0.4686436 -0.409794,0.6991963 -0.08041,0.1565803 -0.149924,0.312389 -0.180896,0.4403556 -0.02217,0.1033275 -0.01421,0.1816232 0.02062,0.2262696 0,0 0,0 0,0 0.04078,0.052279 0.107159,0.071509 0.183613,0.073867 0.122233,0.00377 0.256455,-0.00734 0.42558,-0.090011 0.09752,-0.049988 0.194938,-0.099691 0.293269,-0.151506 -0.144826,0.2899494 -0.291099,0.582794 -0.438839,0.8785773 -1e-6,9e-7 -1e-6,9e-7 -1e-6,9e-7 -0.140165,0.085833 -0.264998,0.1339777 -0.390177,0.1850069 -0.198933,0.087455 -0.367921,0.1143134 -0.514512,0.1077238 -0.160947,-0.00723 -0.304643,-0.044586 -0.379275,-0.1695684 -0.05054,-0.1047793 -0.05359,-0.2662049 0.0016,-0.4737354 0.05764,-0.2166326 0.169732,-0.4724059 0.307004,-0.7328794 0,0 0,-9e-7 0,-9e-7 0.177931,-0.3283457 0.379968,-0.6602367 0.589278,-0.987404 1.0183,-1.5916842 1.986589,-3.1051966 2.908461,-4.54615675 0.186899,-0.0571259 0.37431,-0.11440401 0.562239,-0.17184312 -0.311404,0.4927036 -0.628098,0.99377675 -0.950217,1.50343297 0,0 0,0 0,0"
           style="font-style:normal;font-variant:normal;font-weight:normal;font-stretch:normal;font-size:12.5px;font-family:Ubuntu;-inkscape-font-specification:Ubuntu;fill:#ffffff" />
        <path
           inkscape:connector-curvature="0"
           id="path4990"
           d="m 32.189233,3.7782772 c -0.239008,0.4234458 -0.513291,0.8550174 -0.821012,1.2626961 -0.274439,0.3635862 -0.572405,0.7078047 -0.873145,0.9948888 -0.28823,0.2790469 -0.576196,0.50089 -0.838413,0.6492554 0,0 0,0 0,0 -0.272078,0.148416 -0.510747,0.2112165 -0.705848,0.2023776 0,0 0,0 0,0 -0.194014,-0.00879 -0.345697,-0.08846 -0.430769,-0.2500869 -0.07585,-0.1604653 -0.09358,-0.389022 -0.05126,-0.6671283 0,0 0,0 0,0 0.04773,-0.2881717 0.158359,-0.6252121 0.308032,-0.9764066 0.168184,-0.3946283 0.392728,-0.8101787 0.64062,-1.2174129 0.242595,-0.3985318 0.511938,-0.7945299 0.8037,-1.1614489 0.257626,-0.3254915 0.531359,-0.6322767 0.805434,-0.8882404 0,0 0,0 10e-7,-8e-7 0.25984,-0.2394422 0.51835,-0.4317869 0.753523,-0.5608315 0.248437,-0.1408658 0.471232,-0.21060066 0.657075,-0.21766701 0,0 0,0 0,0 0.186792,-0.007102 0.338513,0.0490197 0.432092,0.17914751 0,0 0,0 0,8e-7 0.09394,0.1187896 0.135327,0.3050163 0.117139,0.5446285 -0.01531,0.2543149 -0.09651,0.5668597 -0.222144,0.9029833 -0.139961,0.378351 -0.34125,0.7890591 -0.57503,1.2032453 0,0 0,0 0,0 m -0.568256,-3.724e-4 c 0.306736,-0.5348374 0.565315,-1.0821278 0.625665,-1.4856032 0.05709,-0.3389514 -0.06112,-0.5277352 -0.292295,-0.5215028 -0.231184,0.00623 -0.574079,0.2059598 -0.914108,0.5452764 0,0 0,0 0,0 -0.404327,0.4044333 -0.775921,0.9395127 -1.088753,1.4607352 -0.320112,0.5333542 -0.606131,1.0986216 -0.704129,1.5438248 -1e-6,9e-7 -1e-6,9e-7 -1e-6,9e-7 -0.07586,0.3736129 0.03298,0.593277 0.270608,0.6006875 0.237693,0.00741 0.600696,-0.1993124 0.964475,-0.5726233 0.434291,-0.44459 0.824536,-1.0232893 1.138538,-1.5707955 0,0 0,0 0,0"
           style="font-style:normal;font-variant:normal;font-weight:normal;font-stretch:normal;font-size:12.5px;font-family:Ubuntu;-inkscape-font-specification:Ubuntu;fill:#ffffff" />
        <path
           inkscape:connector-curvature="0"
           id="path4992"
           d="m 35.7117,0.84398732 c 0.05475,-0.002067 0.105054,0.004204 0.152928,0.0145094 0.05982,0.004338 0.115908,0.0155328 0.167192,0.0344472 0.04894,0.0105351 0.09578,0.0248315 0.13819,0.0459912 0,0 0,0 0,0 0.03398,0.00885 0.06843,0.0175089 0.09511,0.0375679 -0.181333,0.28484168 -0.364202,0.57215038 -0.548683,0.86195988 0,0 0,0 0,0 -0.04951,-0.044761 -0.114591,-0.066982 -0.178012,-0.090652 -0.101672,-0.050844 -0.231235,-0.056932 -0.36435,-0.053362 0,0 0,0 0,0 -0.106403,0.00285 -0.224225,0.027585 -0.349805,0.071926 -0.07924,0.025074 -0.15783,0.048663 -0.239203,0.079191 -0.859116,1.5823739 -1.764239,3.2494879 -2.719166,5.0083346 -0.194179,-0.00835 -0.387321,-0.016663 -0.579437,-0.024929 1.093259,-1.9806886 2.122493,-3.8453824 3.093167,-5.6039811 0.212031,-0.1049101 0.413255,-0.1790721 0.610088,-0.24321219 0.260315,-0.0910542 0.498955,-0.12936998 0.721976,-0.13779095 0,0 0,0 0,0"
           style="font-style:normal;font-variant:normal;font-weight:normal;font-stretch:normal;font-size:12.5px;font-family:Ubuntu;-inkscape-font-specification:Ubuntu;fill:#ffffff" />
      </g>
    </g>
  </g>
</svg>
